<?xml version="1.0" encoding="UTF-8"?>
<!DOCTYPE svg PUBLIC "-//W3C//DTD SVG 1.1//EN" "http://www.w3.org/Graphics/SVG/1.1/DTD/svg11.dtd">
<svg xmlns="http://www.w3.org/2000/svg" version="1.1" width="137px" height="137px" style="shape-rendering:geometricPrecision; text-rendering:geometricPrecision; image-rendering:optimizeQuality; fill-rule:evenodd; clip-rule:evenodd" xmlns:xlink="http://www.w3.org/1999/xlink">
<g><path style="opacity:0.947" fill="#fcfefe" d="M 66.5,-0.5 C 67.5,-0.5 68.5,-0.5 69.5,-0.5C 91.5,22.1667 113.833,44.5 136.5,66.5C 136.5,67.5 136.5,68.5 136.5,69.5C 113.833,91.5 91.5,113.833 69.5,136.5C 68.5,136.5 67.5,136.5 66.5,136.5C 44.5,113.833 22.1667,91.5 -0.5,69.5C -0.5,68.5 -0.5,67.5 -0.5,66.5C 22.1667,44.5 44.5,22.1667 66.5,-0.5 Z"/></g>
<g><path style="opacity:1" fill="#37ace1" d="M 66.5,24.5 C 71.4194,27.7483 75.7528,31.7483 79.5,36.5C 85.4632,37.4959 91.4632,37.8293 97.5,37.5C 97.1707,43.5368 97.5041,49.5368 98.5,55.5C 102.833,59.1667 106.833,63.1667 110.5,67.5C 106.833,71.8333 102.833,75.8333 98.5,79.5C 97.5041,85.4632 97.1707,91.4632 97.5,97.5C 91.4632,97.1707 85.4632,97.5041 79.5,98.5C 75.8333,102.833 71.8333,106.833 67.5,110.5C 63.1667,106.833 59.1667,102.833 55.5,98.5C 49.5368,97.5041 43.5368,97.1707 37.5,97.5C 37.8293,91.4632 37.4959,85.4632 36.5,79.5C 32.1667,75.8333 28.1667,71.8333 24.5,67.5C 28.1667,63.1667 32.1667,59.1667 36.5,55.5C 37.4959,49.5368 37.8293,43.5368 37.5,37.5C 43.5368,37.8293 49.5368,37.4959 55.5,36.5C 59.1886,32.4799 62.8553,28.4799 66.5,24.5 Z"/></g>
<g><path style="opacity:1" fill="#211665" d="M 66.5,31.5 C 70.5698,34.0604 74.2365,37.2271 77.5,41C 82.8229,41.4994 88.1563,41.666 93.5,41.5C 93.334,46.8437 93.5006,52.1771 94,57.5C 97.3493,60.682 100.516,64.0154 103.5,67.5C 100.516,70.9846 97.3493,74.318 94,77.5C 93.5006,82.8229 93.334,88.1563 93.5,93.5C 88.1563,93.334 82.8229,93.5006 77.5,94C 74.318,97.3493 70.9846,100.516 67.5,103.5C 64.0154,100.516 60.682,97.3493 57.5,94C 52.1771,93.5006 46.8437,93.334 41.5,93.5C 41.666,88.1563 41.4994,82.8229 41,77.5C 37.6507,74.318 34.484,70.9846 31.5,67.5C 34.484,64.0154 37.6507,60.682 41,57.5C 41.4994,52.1771 41.666,46.8437 41.5,41.5C 46.8437,41.666 52.1771,41.4994 57.5,41C 60.7044,37.9641 63.7044,34.7974 66.5,31.5 Z"/></g>
<g><path style="opacity:1" fill="#e41a26" d="M 66.5,35.5 C 69.6741,35.9522 70.0075,36.9522 67.5,38.5C 65.4807,37.8671 65.1474,36.8671 66.5,35.5 Z"/></g>
<g><path style="opacity:1" fill="#afacc8" d="M 66.5,42.5 C 64.1654,46.4194 60.8321,47.586 56.5,46C 55.0764,50.3797 52.0764,52.213 47.5,51.5C 47.8016,54.0593 47.4682,56.3926 46.5,58.5C 46.5,55.8333 46.5,53.1667 46.5,50.5C 48.9599,50.3015 51.2933,49.6348 53.5,48.5C 54.4246,43.9873 56.9246,42.6539 61,44.5C 62.9386,44.0457 64.772,43.379 66.5,42.5 Z"/></g>
<g><path style="opacity:1" fill="#211967" d="M 66.5,42.5 C 68.7742,43.597 70.9409,44.9304 73,46.5C 74.7892,45.5909 76.6226,45.4242 78.5,46C 79.5,47.6667 80.5,49.3333 81.5,51C 83.4727,51.4955 85.4727,51.6621 87.5,51.5C 87.1984,54.0593 87.5318,56.3926 88.5,58.5C 89.4756,59.8149 90.4756,61.1482 91.5,62.5C 88.8333,65.8333 88.8333,69.1667 91.5,72.5C 90.4756,73.8518 89.4756,75.1851 88.5,76.5C 87.5318,78.6074 87.1984,80.9407 87.5,83.5C 85.4727,83.3379 83.4727,83.5045 81.5,84C 80.5,85.6667 79.5,87.3333 78.5,89C 76.6226,89.5758 74.7892,89.4091 73,88.5C 71.0374,89.6254 69.204,90.9587 67.5,92.5C 65.796,90.9587 63.9626,89.6254 62,88.5C 58.2604,90.4449 55.7604,89.4449 54.5,85.5C 52.6957,84.2319 50.6957,83.5652 48.5,83.5C 48.8076,81.076 48.4742,78.7427 47.5,76.5C 45.8333,75.5 44.5,74.1667 43.5,72.5C 46.1667,69.1667 46.1667,65.8333 43.5,62.5C 44.5244,61.1482 45.5244,59.8149 46.5,58.5C 47.4682,56.3926 47.8016,54.0593 47.5,51.5C 52.0764,52.213 55.0764,50.3797 56.5,46C 60.8321,47.586 64.1654,46.4194 66.5,42.5 Z"/></g>
<g><path style="opacity:1" fill="#b7b4ce" d="M 66.5,42.5 C 66.7352,41.9033 67.2352,41.5699 68,41.5C 70.8418,44.4684 74.1752,45.1351 78,43.5C 79.6486,44.7861 80.8153,46.4527 81.5,48.5C 83.6079,49.9438 85.9412,50.6104 88.5,50.5C 88.5,53.1667 88.5,55.8333 88.5,58.5C 87.5318,56.3926 87.1984,54.0593 87.5,51.5C 85.4727,51.6621 83.4727,51.4955 81.5,51C 80.5,49.3333 79.5,47.6667 78.5,46C 76.6226,45.4242 74.7892,45.5909 73,46.5C 70.9409,44.9304 68.7742,43.597 66.5,42.5 Z"/></g>
<g><path style="opacity:1" fill="#b01837" d="M 43.5,43.5 C 46.5,43.1667 47.8333,44.5 47.5,47.5C 46.1667,47.5 44.8333,47.5 43.5,47.5C 43.5,46.1667 43.5,44.8333 43.5,43.5 Z"/></g>
<g><path style="opacity:1" fill="#a91839" d="M 87.5,43.5 C 88.8333,43.5 90.1667,43.5 91.5,43.5C 91.5,44.8333 91.5,46.1667 91.5,47.5C 90.1667,47.5 88.8333,47.5 87.5,47.5C 87.5,46.1667 87.5,44.8333 87.5,43.5 Z"/></g>
<g><path style="opacity:1" fill="#eaedf0" d="M 66.5,48.5 C 68.2083,50.7176 70.2083,52.8843 72.5,55C 75.5335,55.6601 78.3669,55.1601 81,53.5C 78.1519,59.3474 79.6519,64.014 85.5,67.5C 79.3139,70.6103 77.9806,75.1103 81.5,81C 78.7576,79.717 75.7576,79.3836 72.5,80C 70.6487,81.6837 68.982,83.5171 67.5,85.5C 64.3591,79.3429 59.8591,78.0095 54,81.5C 57.284,74.9936 55.4506,70.3269 48.5,67.5C 55.4992,65.1315 57.1659,60.7982 53.5,54.5C 54.5761,53.3441 55.5761,53.5108 56.5,55C 62.0295,56.0751 65.3629,53.9084 66.5,48.5 Z"/></g>
<g><path style="opacity:1" fill="#106c38" d="M 65.5,57.5 C 68.8314,58.8969 72.3314,60.2302 76,61.5C 76.5946,62.8989 76.4279,64.2322 75.5,65.5C 78.6629,69.2059 77.9962,71.5392 73.5,72.5C 74.0853,75.2605 73.0853,76.9272 70.5,77.5C 67.8978,76.9455 65.2311,76.7788 62.5,77C 61.6198,75.6439 61.2865,74.1439 61.5,72.5C 57.0038,71.5392 56.3371,69.2059 59.5,65.5C 59.0688,64.7065 58.7355,63.8732 58.5,63C 60.9804,61.4275 63.3137,59.5941 65.5,57.5 Z"/></g>
<g><path style="opacity:1" fill="#feff00" d="M 65.5,64.5 C 70.1585,64.0146 71.4919,65.848 69.5,70C 64.7282,70.8104 63.3948,68.9771 65.5,64.5 Z"/></g>
<g><path style="opacity:1" fill="#d01a2d" d="M 36.5,65.5 C 38.1042,66.287 38.7709,67.6203 38.5,69.5C 34.421,69.4662 33.7543,68.1328 36.5,65.5 Z"/></g>
<g><path style="opacity:1" fill="#dd1a29" d="M 97.5,66.5 C 99.3547,66.272 100.188,66.9387 100,68.5C 97.3655,69.6922 96.5322,69.0256 97.5,66.5 Z"/></g>
<g><path style="opacity:1" fill="#c3c1d6" d="M 88.5,58.5 C 90.5441,59.0312 92.2107,60.1978 93.5,62C 92.373,63.7533 91.373,65.5866 90.5,67.5C 91.373,69.4134 92.373,71.2467 93.5,73C 92.2107,74.8022 90.5441,75.9688 88.5,76.5C 89.4756,75.1851 90.4756,73.8518 91.5,72.5C 88.8333,69.1667 88.8333,65.8333 91.5,62.5C 90.4756,61.1482 89.4756,59.8149 88.5,58.5 Z"/></g>
<g><path style="opacity:1" fill="#aeaac7" d="M 46.5,58.5 C 45.5244,59.8149 44.5244,61.1482 43.5,62.5C 46.1667,65.8333 46.1667,69.1667 43.5,72.5C 44.5,74.1667 45.8333,75.5 47.5,76.5C 48.4742,78.7427 48.8076,81.076 48.5,83.5C 50.6957,83.5652 52.6957,84.2319 54.5,85.5C 55.7604,89.4449 58.2604,90.4449 62,88.5C 63.9626,89.6254 65.796,90.9587 67.5,92.5C 69.204,90.9587 71.0374,89.6254 73,88.5C 74.7892,89.4091 76.6226,89.5758 78.5,89C 79.5,87.3333 80.5,85.6667 81.5,84C 83.4727,83.5045 85.4727,83.3379 87.5,83.5C 87.1984,80.9407 87.5318,78.6074 88.5,76.5C 88.5,79.1667 88.5,81.8333 88.5,84.5C 86.0401,84.6985 83.7067,85.3652 81.5,86.5C 80.3963,91.0519 77.7297,92.3852 73.5,90.5C 71.5,91.5 69.5,92.5 67.5,93.5C 65.5,92.5 63.5,91.5 61.5,90.5C 60.1667,90.8333 58.8333,91.1667 57.5,91.5C 55.4448,89.7391 53.6115,87.7391 52,85.5C 50.2341,84.7665 48.4008,84.4332 46.5,84.5C 47.609,79.5109 45.9424,75.8443 41.5,73.5C 42.5,71.5 43.5,69.5 44.5,67.5C 43.627,65.5866 42.627,63.7533 41.5,62C 42.7893,60.1978 44.4559,59.0312 46.5,58.5 Z"/></g>
<g><path style="opacity:1" fill="#c11932" d="M 43.5,88.5 C 44.8333,88.5 46.1667,88.5 47.5,88.5C 47.5,89.5 47.5,90.5 47.5,91.5C 46.1667,91.5 44.8333,91.5 43.5,91.5C 43.5,90.5 43.5,89.5 43.5,88.5 Z"/></g>
<g><path style="opacity:1" fill="#c21932" d="M 87.5,88.5 C 88.8333,88.5 90.1667,88.5 91.5,88.5C 91.5,89.5 91.5,90.5 91.5,91.5C 90.1667,91.5 88.8333,91.5 87.5,91.5C 87.5,90.5 87.5,89.5 87.5,88.5 Z"/></g>
<g><path style="opacity:1" fill="#e41a26" d="M 66.5,96.5 C 69.6741,96.9522 70.0075,97.9522 67.5,99.5C 65.4807,98.8671 65.1474,97.8671 66.5,96.5 Z"/></g>
</svg>
