<?xml version="1.0" encoding="UTF-8"?>
<!DOCTYPE svg PUBLIC "-//W3C//DTD SVG 1.1//EN" "http://www.w3.org/Graphics/SVG/1.1/DTD/svg11.dtd">
<svg xmlns="http://www.w3.org/2000/svg" version="1.1" width="512px" height="512px" style="shape-rendering:geometricPrecision; text-rendering:geometricPrecision; image-rendering:optimizeQuality; fill-rule:evenodd; clip-rule:evenodd" xmlns:xlink="http://www.w3.org/1999/xlink">
<g><path style="opacity:0.997" fill="#267946" d="M 226.5,-0.5 C 245.833,-0.5 265.167,-0.5 284.5,-0.5C 292.77,0.878552 301.104,2.54522 309.5,4.5C 309.611,5.11742 309.944,5.61742 310.5,6C 312.473,6.49546 314.473,6.66212 316.5,6.5C 333.3,9.89947 349.3,15.5661 364.5,23.5C 366.579,25.873 369.246,27.2064 372.5,27.5C 385.162,33.6843 397.162,40.851 408.5,49C 413.187,53.3496 418.187,57.3496 423.5,61C 426.033,64.0309 428.7,66.8643 431.5,69.5C 435.167,75.1667 439.833,79.8333 445.5,83.5C 461.067,100.119 474.067,118.786 484.5,139.5C 483.916,142.285 484.916,143.952 487.5,144.5C 491.026,153.076 494.36,161.743 497.5,170.5C 496.957,170.56 496.624,170.893 496.5,171.5C 496.879,173.213 497.879,174.213 499.5,174.5C 504.666,191.678 508.666,209.011 511.5,226.5C 511.5,243.167 511.5,259.833 511.5,276.5C 510.252,277.334 509.585,278.667 509.5,280.5C 509.511,282.045 509.844,283.378 510.5,284.5C 510.182,290.895 509.348,297.228 508,303.5C 505.318,314.563 502.484,325.563 499.5,336.5C 498.624,336.369 497.957,336.702 497.5,337.5C 496.347,338.687 496.347,339.687 497.5,340.5C 494.36,349.257 491.026,357.924 487.5,366.5C 486.883,366.389 486.383,366.056 486,365.5C 484.872,367.345 484.372,369.345 484.5,371.5C 466.189,405.947 441.856,435.447 411.5,460C 398.708,468.903 385.375,477.07 371.5,484.5C 369.345,484.372 367.345,484.872 365.5,486C 366.056,486.383 366.389,486.883 366.5,487.5C 340.125,498.96 312.792,506.96 284.5,511.5C 265.167,511.5 245.833,511.5 226.5,511.5C 209.011,508.666 191.678,504.666 174.5,499.5C 174.631,498.624 174.298,497.957 173.5,497.5C 172.313,496.347 171.313,496.347 170.5,497.5C 168.297,497.396 166.297,496.73 164.5,495.5C 161.557,492.632 157.89,490.965 153.5,490.5C 150.594,489.213 147.594,488.213 144.5,487.5C 143.335,484.41 141.002,483.076 137.5,483.5C 124.29,476.402 111.623,468.569 99.5,460C 94.2827,454.916 88.9494,450.083 83.5,445.5C 78.5,438.5 72.5,432.5 65.5,427.5C 50.293,411.136 37.6263,392.803 27.5,372.5C 27.2064,369.246 25.873,366.579 23.5,364.5C 11.6444,338.938 3.64444,312.271 -0.5,284.5C -0.5,265.167 -0.5,245.833 -0.5,226.5C 2.33436,209.011 6.33436,191.678 11.5,174.5C 12.3764,174.631 13.0431,174.298 13.5,173.5C 14.6527,172.313 14.6527,171.313 13.5,170.5C 16.0407,162.425 19.3741,154.759 23.5,147.5C 25.6246,144.912 26.9579,141.912 27.5,138.5C 31.1384,131.85 34.8051,125.184 38.5,118.5C 41.9212,116.405 44.2545,113.405 45.5,109.5C 47.4235,106.243 49.2568,102.91 51,99.5C 56.0839,94.2827 60.9172,88.9494 65.5,83.5C 72.5,78.5 78.5,72.5 83.5,65.5C 88.9494,60.9172 94.2827,56.0839 99.5,51C 137.487,23.3474 179.82,6.18075 226.5,-0.5 Z M 245.5,121.5 C 246.873,121.343 248.207,121.51 249.5,122C 247.509,122.374 245.842,123.207 244.5,124.5C 226.02,134.737 214.854,150.404 211,171.5C 208.449,204.58 221.949,228.413 251.5,243C 263.623,247.02 275.956,248.02 288.5,246C 299.756,245.066 308.922,240.233 316,231.5C 314.49,236.052 311.657,239.886 307.5,243C 280.4,265.176 251.4,267.843 220.5,251C 217.167,248.333 213.833,245.667 210.5,243C 202.97,235.315 197.304,226.482 193.5,216.5C 192.538,212.605 191.204,208.939 189.5,205.5C 186.649,184.24 191.316,164.906 203.5,147.5C 207.854,142.479 212.521,137.812 217.5,133.5C 221.109,132.362 224.442,130.696 227.5,128.5C 233.227,125.564 239.227,123.23 245.5,121.5 Z M 293.5,157.5 C 294.962,158.458 296.295,159.624 297.5,161C 298.437,161.692 299.103,161.525 299.5,160.5C 303.46,158.788 307.293,156.788 311,154.5C 309.744,157.667 308.577,161.001 307.5,164.5C 306.475,165.374 305.808,166.541 305.5,168C 309.445,170.941 313.112,174.274 316.5,178C 315.207,178.49 313.873,178.657 312.5,178.5C 309.152,177.663 305.819,177.163 302.5,177C 299.813,181.391 297.313,185.891 295,190.5C 293.683,185.569 292.85,180.569 292.5,175.5C 287.464,175.412 282.464,174.912 277.5,174C 281.202,171.37 285.202,169.203 289.5,167.5C 289.921,162.968 289.255,158.468 287.5,154C 287.833,153.5 288.167,153 288.5,152.5C 290.549,153.882 292.215,155.548 293.5,157.5 Z"/></g>
<g><path style="opacity:0.69" fill="#89b69e" d="M 309.5,4.5 C 312.067,4.72148 314.401,5.38815 316.5,6.5C 314.473,6.66212 312.473,6.49546 310.5,6C 309.944,5.61742 309.611,5.11742 309.5,4.5 Z"/></g>
<g><path style="opacity:1" fill="#fcfbc7" d="M 502.5,219.5 C 502.444,224.731 503.111,229.731 504.5,234.5C 509.078,317.294 481.078,386.794 420.5,443C 366.938,488.404 304.938,508.904 234.5,504.5C 229.731,503.111 224.731,502.444 219.5,502.5C 127.998,486.496 63.1651,436.163 25,351.5C 9.45064,314.353 3.28397,275.686 6.5,235.5C 7.80629,230.384 8.47295,225.051 8.5,219.5C 21.365,142.893 60.365,83.7268 125.5,42C 193.063,2.58638 264.063,-4.74695 338.5,20C 424.207,53.0444 478.04,114.211 500,203.5C 501.16,208.792 501.993,214.125 502.5,219.5 Z M 245.5,121.5 C 246.873,121.343 248.207,121.51 249.5,122C 247.509,122.374 245.842,123.207 244.5,124.5C 226.02,134.737 214.854,150.404 211,171.5C 208.449,204.58 221.949,228.413 251.5,243C 263.623,247.02 275.956,248.02 288.5,246C 299.756,245.066 308.922,240.233 316,231.5C 314.49,236.052 311.657,239.886 307.5,243C 280.4,265.176 251.4,267.843 220.5,251C 217.167,248.333 213.833,245.667 210.5,243C 202.97,235.315 197.304,226.482 193.5,216.5C 192.538,212.605 191.204,208.939 189.5,205.5C 186.649,184.24 191.316,164.906 203.5,147.5C 207.854,142.479 212.521,137.812 217.5,133.5C 221.109,132.362 224.442,130.696 227.5,128.5C 233.227,125.564 239.227,123.23 245.5,121.5 Z M 293.5,157.5 C 294.962,158.458 296.295,159.624 297.5,161C 298.437,161.692 299.103,161.525 299.5,160.5C 303.46,158.788 307.293,156.788 311,154.5C 309.744,157.667 308.577,161.001 307.5,164.5C 306.475,165.374 305.808,166.541 305.5,168C 309.445,170.941 313.112,174.274 316.5,178C 315.207,178.49 313.873,178.657 312.5,178.5C 309.152,177.663 305.819,177.163 302.5,177C 299.813,181.391 297.313,185.891 295,190.5C 293.683,185.569 292.85,180.569 292.5,175.5C 287.464,175.412 282.464,174.912 277.5,174C 281.202,171.37 285.202,169.203 289.5,167.5C 289.921,162.968 289.255,158.468 287.5,154C 287.833,153.5 288.167,153 288.5,152.5C 290.549,153.882 292.215,155.548 293.5,157.5 Z"/></g>
<g><path style="opacity:1" fill="#11703a" d="M 263.5,40.5 C 262.517,44.2984 262.183,48.2984 262.5,52.5C 260.167,52.5 257.833,52.5 255.5,52.5C 255.835,42.1405 256.502,31.8072 257.5,21.5C 264.862,21.3646 272.196,21.6979 279.5,22.5C 279.5,24.5 279.5,26.5 279.5,28.5C 274.5,28.5 269.5,28.5 264.5,28.5C 264.5,30.5 264.5,32.5 264.5,34.5C 268.5,34.5 272.5,34.5 276.5,34.5C 276.5,36.5 276.5,38.5 276.5,40.5C 272.167,40.5 267.833,40.5 263.5,40.5 Z"/></g>
<g><path style="opacity:1" fill="#15713b" d="M 226.5,22.5 C 243.98,21.15 251.147,29.15 248,46.5C 243.053,54.7171 235.886,57.5505 226.5,55C 218.524,49.0762 215.691,41.2429 218,31.5C 220.362,27.9734 223.196,24.9734 226.5,22.5 Z"/></g>
<g><path style="opacity:0.867" fill="#93c5b2" d="M 364.5,23.5 C 367.721,23.8961 370.388,25.2295 372.5,27.5C 369.246,27.2064 366.579,25.873 364.5,23.5 Z"/></g>
<g><path style="opacity:1" fill="#f3f6c2" d="M 228.5,28.5 C 233.742,27.2706 237.575,28.9372 240,33.5C 240.667,37.1667 240.667,40.8333 240,44.5C 239.535,45.9308 238.701,47.0975 237.5,48C 227.084,48.9036 222.917,44.0703 225,33.5C 225.997,31.6769 227.164,30.0103 228.5,28.5 Z"/></g>
<g><path style="opacity:1" fill="#16713b" d="M 322.5,31.5 C 325.199,31.4661 327.699,32.1328 330,33.5C 330.834,44.8422 331.667,56.1756 332.5,67.5C 325.125,68.0934 322.458,64.7601 324.5,57.5C 320.931,56.8111 317.431,55.8111 314,54.5C 311.491,55.8288 309.658,57.8288 308.5,60.5C 305.912,59.8064 303.579,58.6398 301.5,57C 308.628,48.5613 315.628,40.0613 322.5,31.5 Z"/></g>
<g><path style="opacity:1" fill="#16713b" d="M 181.5,32.5 C 186.125,38.4264 184.459,41.4264 176.5,41.5C 179.303,49.9095 182.303,58.2429 185.5,66.5C 183.09,67.0629 180.757,67.5629 178.5,68C 175.928,59.9547 172.761,52.1214 169,44.5C 166.293,45.4367 163.793,46.7701 161.5,48.5C 160.123,46.7105 159.123,44.7105 158.5,42.5C 166.368,39.3937 174.035,36.0603 181.5,32.5 Z"/></g>
<g><path style="opacity:1" fill="#e7efba" d="M 321.5,42.5 C 323.369,44.6353 324.036,47.3019 323.5,50.5C 321.073,50.477 318.74,49.977 316.5,49C 318.765,47.2419 320.432,45.0752 321.5,42.5 Z"/></g>
<g><path style="opacity:1" fill="#18723c" d="M 350.5,45.5 C 358.948,44.7088 365.782,47.7088 371,54.5C 371.497,57.146 371.664,59.8127 371.5,62.5C 366.32,62.8456 363.487,60.5123 363,55.5C 355.949,50.4952 350.615,51.8285 347,59.5C 344.922,69.0827 348.588,73.0827 358,71.5C 358.667,70.5 358.667,69.5 358,68.5C 352.542,66.9774 352.042,64.3107 356.5,60.5C 360.5,62.8333 364.5,65.1667 368.5,67.5C 366.628,71.4121 364.628,75.2454 362.5,79C 349.704,80.8713 341.704,75.538 338.5,63C 339.983,55.3652 343.983,49.5318 350.5,45.5 Z"/></g>
<g><path style="opacity:1" fill="#7aaf7a" d="M 263.5,40.5 C 263.5,44.8333 263.5,49.1667 263.5,53.5C 260.615,53.8064 257.948,53.4731 255.5,52.5C 257.833,52.5 260.167,52.5 262.5,52.5C 262.183,48.2984 262.517,44.2984 263.5,40.5 Z"/></g>
<g><path style="opacity:1" fill="#13703a" d="M 148.5,47.5 C 149.822,47.33 150.989,47.6634 152,48.5C 156.502,56.8386 161.002,65.1719 165.5,73.5C 164.226,75.8115 162.226,77.1449 159.5,77.5C 153.2,73.9757 146.867,70.809 140.5,68C 143.626,73.0848 146.626,78.2514 149.5,83.5C 147.08,86.3579 144.58,86.6912 142,84.5C 137.918,76.0893 133.418,67.9226 128.5,60C 129.867,57.8001 131.867,56.3001 134.5,55.5C 140.5,59.1667 146.5,62.8333 152.5,66.5C 152.833,66.1667 153.167,65.8333 153.5,65.5C 151.017,60.5296 148.351,55.6963 145.5,51C 146.071,49.4009 147.071,48.2342 148.5,47.5 Z"/></g>
<g><path style="opacity:1" fill="#13703a" d="M 385.5,60.5 C 391.242,64.4632 396.742,68.7965 402,73.5C 404.313,83.0313 400.48,87.698 390.5,87.5C 390.637,92.9367 389.97,98.27 388.5,103.5C 382.363,99.9199 380.696,94.7532 383.5,88C 383.346,85.6209 382.68,83.4542 381.5,81.5C 380.5,80.1667 379.5,80.1667 378.5,81.5C 376.157,84.2072 373.823,86.8739 371.5,89.5C 369.246,88.8763 367.579,87.543 366.5,85.5C 372.6,76.9571 378.933,68.6238 385.5,60.5 Z"/></g>
<g><path style="opacity:1" fill="#15713b" d="M 117.5,65.5 C 119.922,66.0852 121.589,67.5852 122.5,70C 118.759,73.286 114.925,76.4527 111,79.5C 110.376,81.4645 110.876,83.1311 112.5,84.5C 113.002,85.521 113.668,85.6877 114.5,85C 117.432,81.3946 120.932,78.5613 125,76.5C 126.833,77 128,78.1667 128.5,80C 125.023,83.6421 121.357,87.1421 117.5,90.5C 119.192,92.3586 120.692,94.3586 122,96.5C 126.355,92.6441 130.855,88.9774 135.5,85.5C 136.711,86.8745 137.711,88.3745 138.5,90C 132.646,95.5191 126.479,100.686 120,105.5C 113.691,97.0235 107.191,88.6901 100.5,80.5C 106.483,75.8495 112.15,70.8495 117.5,65.5 Z"/></g>
<g><path style="opacity:0.91" fill="#6ba686" d="M 83.5,65.5 C 78.5,72.5 72.5,78.5 65.5,83.5C 70.5,76.5 76.5,70.5 83.5,65.5 Z"/></g>
<g><path style="opacity:1" fill="#1c743e" d="M 231.5,69.5 C 234.5,69.5 237.5,69.5 240.5,69.5C 240.5,71.1667 240.5,72.8333 240.5,74.5C 236.476,75.0381 232.476,75.7048 228.5,76.5C 228.5,77.5 228.5,78.5 228.5,79.5C 232.466,78.8379 236.466,78.5045 240.5,78.5C 240.5,80.1667 240.5,81.8333 240.5,83.5C 236.881,84.2436 233.215,84.577 229.5,84.5C 229.5,86.5 229.5,88.5 229.5,90.5C 234.141,89.8734 238.807,89.5401 243.5,89.5C 243.5,91.1667 243.5,92.8333 243.5,94.5C 237.155,94.6527 230.822,94.986 224.5,95.5C 224.01,87.7551 223.01,80.0884 221.5,72.5C 224.832,71.1347 228.165,70.1347 231.5,69.5 Z"/></g>
<g><path style="opacity:1" fill="#0d6f39" d="M 261.5,80.5 C 261.56,81.0431 261.893,81.3764 262.5,81.5C 263.491,77.5546 263.824,73.5546 263.5,69.5C 265.167,69.5 266.833,69.5 268.5,69.5C 268.5,77.5 268.5,85.5 268.5,93.5C 266.396,93.7989 264.396,93.4656 262.5,92.5C 260.25,88.3318 257.75,84.3318 255,80.5C 254.501,84.8206 254.334,89.1539 254.5,93.5C 252.833,93.5 251.167,93.5 249.5,93.5C 249.5,85.1667 249.5,76.8333 249.5,68.5C 251.199,68.3398 252.866,68.5065 254.5,69C 257.059,72.719 259.392,76.5523 261.5,80.5 Z"/></g>
<g><path style="opacity:1" fill="#edf2be" d="M 387.5,69.5 C 390.061,71.3714 392.561,73.3714 395,75.5C 395.72,77.1124 395.554,78.6124 394.5,80C 388.253,81.0678 385.087,78.5678 385,72.5C 386.045,71.6266 386.878,70.6266 387.5,69.5 Z"/></g>
<g><path style="opacity:1" fill="#1c743e" d="M 283.5,70.5 C 288.436,70.3105 292.602,71.9772 296,75.5C 296.494,77.1341 296.66,78.8008 296.5,80.5C 294.5,80.5 292.5,80.5 290.5,80.5C 290.241,76.9319 288.241,75.5985 284.5,76.5C 284.281,77.675 284.614,78.675 285.5,79.5C 289.056,80.8624 292.222,82.8624 295,85.5C 295.829,94.6606 291.662,98.1606 282.5,96C 277.117,94.4625 274.784,90.9625 275.5,85.5C 277.5,85.5 279.5,85.5 281.5,85.5C 281.329,90.4943 283.662,92.3276 288.5,91C 288.957,90.586 289.291,90.086 289.5,89.5C 287.393,86.9391 284.726,85.1058 281.5,84C 275.811,78.5832 276.478,74.0832 283.5,70.5 Z"/></g>
<g><path style="opacity:1" fill="#1b743e" d="M 208.5,74.5 C 211.288,74.0769 213.288,75.0769 214.5,77.5C 212.696,78.7681 210.696,79.4348 208.5,79.5C 209.672,85.1887 211.005,90.8553 212.5,96.5C 212.28,100.353 210.447,101.353 207,99.5C 205.34,93.8576 203.84,88.1909 202.5,82.5C 200.409,82.3184 198.409,82.6518 196.5,83.5C 195.05,82.1502 194.383,80.4835 194.5,78.5C 199.437,77.7388 204.103,76.4054 208.5,74.5 Z"/></g>
<g><path style="opacity:1" fill="#a9cb96" d="M 268.5,93.5 C 268.5,85.5 268.5,77.5 268.5,69.5C 266.833,69.5 265.167,69.5 263.5,69.5C 263.824,73.5546 263.491,77.5546 262.5,81.5C 261.893,81.3764 261.56,81.0431 261.5,80.5C 262.483,76.7016 262.817,72.7016 262.5,68.5C 264.833,68.5 267.167,68.5 269.5,68.5C 269.826,77.0168 269.493,85.3501 268.5,93.5 Z"/></g>
<g><path style="opacity:0.29" fill="#70aa88" d="M 431.5,69.5 C 436.597,73.6508 441.263,78.3175 445.5,83.5C 439.833,79.8333 435.167,75.1667 431.5,69.5 Z"/></g>
<g><path style="opacity:1" fill="#217741" d="M 305.5,76.5 C 308.93,75.7553 310.597,77.0886 310.5,80.5C 308.965,87.6396 306.965,94.6396 304.5,101.5C 303.205,100.902 301.872,100.402 300.5,100C 299.941,99.2753 299.608,98.4419 299.5,97.5C 301.507,90.4824 303.507,83.4824 305.5,76.5 Z"/></g>
<g><path style="opacity:1" fill="#1d753e" d="M 186.5,81.5 C 187.586,81.62 188.253,82.2867 188.5,83.5C 187.57,87.5036 187.07,91.5036 187,95.5C 190.628,98.0568 194.128,100.723 197.5,103.5C 196.086,104.624 194.586,105.624 193,106.5C 190.242,105.205 187.742,103.539 185.5,101.5C 184.667,104.5 183.833,107.5 183,110.5C 181.416,111.861 179.582,112.528 177.5,112.5C 177.467,107.899 178.134,103.399 179.5,99C 176.345,95.9275 173.011,93.0941 169.5,90.5C 170.833,89.5 172.167,88.5 173.5,87.5C 179.787,93.6902 182.453,92.3568 181.5,83.5C 183.553,83.5979 185.22,82.9313 186.5,81.5 Z"/></g>
<g><path style="opacity:1" fill="#1a733d" d="M 322.5,82.5 C 336.446,82.93 340.946,89.5967 336,102.5C 331.255,108.986 325.422,110.152 318.5,106C 311.035,96.7683 312.368,88.935 322.5,82.5 Z"/></g>
<g><path style="opacity:1" fill="#14713b" d="M 412.5,82.5 C 414.683,83.8502 416.35,85.6836 417.5,88C 410.661,96.1724 403.328,103.506 395.5,110C 394.167,108.667 392.833,107.333 391.5,106C 398.708,98.2957 405.708,90.4624 412.5,82.5 Z"/></g>
<g><path style="opacity:1" fill="#f0f4c0" d="M 323.5,88.5 C 331.001,87.3457 333.834,90.3457 332,97.5C 329.078,102.822 325.078,103.822 320,100.5C 318.745,95.7378 319.912,91.7378 323.5,88.5 Z"/></g>
<g><path style="opacity:1" fill="#15713b" d="M 90.5,88.5 C 99.2363,95.0601 107.57,102.227 115.5,110C 113.641,111.558 112.141,113.391 111,115.5C 106.5,111 102,106.5 97.5,102C 96.8333,101.333 96.1667,101.333 95.5,102C 99.8888,107.389 103.889,113.056 107.5,119C 105.946,120.892 104.112,122.392 102,123.5C 96.2364,120.2 90.403,117.366 84.5,115C 89.3006,118.799 93.8006,122.966 98,127.5C 97.9504,129.752 96.7837,131.418 94.5,132.5C 86.5079,125.841 78.8412,118.841 71.5,111.5C 73.1854,108.411 75.5187,106.077 78.5,104.5C 83.7086,107.021 88.8752,109.688 94,112.5C 92.0496,106.449 88.8829,100.949 84.5,96C 87.1177,93.8943 89.1177,91.3943 90.5,88.5 Z"/></g>
<g><path style="opacity:1" fill="#1c743e" d="M 348.5,93.5 C 350.426,94.2423 352.259,95.2423 354,96.5C 354.333,101.833 354.667,107.167 355,112.5C 357.095,108.635 359.428,104.968 362,101.5C 363.5,102.333 364.667,103.5 365.5,105C 361.716,112.067 357.55,118.9 353,125.5C 351.846,124.257 350.512,123.257 349,122.5C 348.829,117.467 348.329,112.467 347.5,107.5C 345.582,111.004 343.416,114.337 341,117.5C 339.243,116.881 338.076,115.714 337.5,114C 341.566,107.367 345.233,100.534 348.5,93.5 Z"/></g>
<g><path style="opacity:1" fill="#18733d" d="M 160.5,94.5 C 162.914,95.4056 163.747,97.0722 163,99.5C 160.084,101.041 157.251,102.707 154.5,104.5C 153.086,107.59 154.086,108.757 157.5,108C 159.748,106.086 162.248,104.586 165,103.5C 166.301,104.098 167.135,105.098 167.5,106.5C 165.14,108.853 162.473,110.853 159.5,112.5C 158.166,114.818 158.832,116.485 161.5,117.5C 164.833,115.5 168.167,113.5 171.5,111.5C 172.833,112.167 173.833,113.167 174.5,114.5C 169.283,118.031 164.116,121.698 159,125.5C 154.45,118.9 150.284,112.067 146.5,105C 150.962,101.265 155.628,97.7646 160.5,94.5 Z"/></g>
<g><path style="opacity:1" fill="#13703a" d="M 420.5,99.5 C 432.868,99.2737 438.701,105.274 438,117.5C 437.632,118.91 436.799,119.91 435.5,120.5C 434.086,119.376 432.586,118.376 431,117.5C 432.435,107.121 428.268,104.121 418.5,108.5C 417.185,110.316 415.685,111.983 414,113.5C 411.749,117.666 412.583,121.166 416.5,124C 419.035,124.617 421.368,124.117 423.5,122.5C 424.498,124.49 425.498,126.49 426.5,128.5C 419.906,132.706 414.073,131.706 409,125.5C 403.715,114.917 406.215,106.751 416.5,101C 418.058,100.79 419.391,100.29 420.5,99.5 Z"/></g>
<g><path style="opacity:0.463" fill="#78ae90" d="M 45.5,109.5 C 44.2545,113.405 41.9212,116.405 38.5,118.5C 40.1402,114.848 42.4735,111.848 45.5,109.5 Z"/></g>
<g><path style="opacity:1" fill="#16713b" d="M 65.5,119.5 C 71.6778,120.896 72.1778,123.562 67,127.5C 66.3333,128.5 66.3333,129.5 67,130.5C 73.3333,134.833 79.6667,139.167 86,143.5C 86.0618,146.161 85.0618,148.495 83,150.5C 76,145.5 69,140.5 62,135.5C 60.5,137.667 59,139.833 57.5,142C 55.4328,142.536 53.5994,142.036 52,140.5C 51.3333,139.833 51.3333,139.167 52,138.5C 56.3309,132.01 60.8309,125.676 65.5,119.5 Z"/></g>
<g><path style="opacity:1" fill="#16713b" d="M 448.5,124.5 C 450.619,125.791 452.285,127.625 453.5,130C 447.53,133.9 441.364,137.4 435,140.5C 433.788,141.776 432.955,143.276 432.5,145C 433.418,147.086 434.085,149.253 434.5,151.5C 436.527,151.662 438.527,151.495 440.5,151C 446.336,147.248 452.336,143.748 458.5,140.5C 460.188,142.029 461.521,143.863 462.5,146C 456.5,149.667 450.5,153.333 444.5,157C 438.227,160.974 433.061,159.808 429,153.5C 423.4,145.683 424.567,139.183 432.5,134C 437.742,130.572 443.076,127.405 448.5,124.5 Z"/></g>
<g><path style="opacity:0.133" fill="#98c4b0" d="M 27.5,138.5 C 26.9579,141.912 25.6246,144.912 23.5,147.5C 23.5018,143.835 24.8352,140.835 27.5,138.5 Z"/></g>
<g><path style="opacity:0.122" fill="#aed1bd" d="M 484.5,139.5 C 485.737,140.965 486.737,142.632 487.5,144.5C 484.916,143.952 483.916,142.285 484.5,139.5 Z"/></g>
<g><path style="opacity:1" fill="#18723c" d="M 47.5,151.5 C 55.835,149.848 60.5016,153.181 61.5,161.5C 65.8396,160.944 70.1729,160.277 74.5,159.5C 75.5,159.833 76.5,160.167 77.5,160.5C 76.5,162.5 75.5,164.5 74.5,166.5C 69.716,167.731 64.8826,168.731 60,169.5C 58.779,170.272 57.779,171.272 57,172.5C 56.3123,173.332 56.479,173.998 57.5,174.5C 61.177,175.996 64.8436,177.329 68.5,178.5C 68.4989,181.843 66.9989,184.177 64,185.5C 54.9825,181.163 45.9825,176.83 37,172.5C 38.8913,164.717 42.3913,157.717 47.5,151.5 Z"/></g>
<g><path style="opacity:1" fill="#968268" d="M 247.5,320.5 C 250.194,323.86 253.194,326.86 256.5,329.5C 267.473,340.31 277.973,351.643 288,363.5C 289.182,365.357 290.849,366.357 293,366.5C 306.035,364.784 318.535,361.284 330.5,356C 343.861,348.322 356.528,339.655 368.5,330C 375.833,322 383.167,314 390.5,306C 387.214,302.556 384.547,298.723 382.5,294.5C 384.252,289.566 387.585,286.733 392.5,286C 395.679,290.512 399.512,294.346 404,297.5C 410.12,294.856 416.287,292.356 422.5,290C 429.812,288.931 436.812,289.764 443.5,292.5C 444.452,294.045 444.785,295.712 444.5,297.5C 431.736,296.964 420.902,301.298 412,310.5C 412.044,312.279 412.711,313.945 414,315.5C 420.636,320.107 423.469,326.44 422.5,334.5C 420.801,334.66 419.134,334.494 417.5,334C 413.2,328.699 408.534,323.699 403.5,319C 402.451,318.508 401.451,318.674 400.5,319.5C 392.565,331.036 385.398,343.036 379,355.5C 370.107,371.228 357.274,382.728 340.5,390C 331.9,392.483 323.233,394.65 314.5,396.5C 317.855,401.076 319.688,406.076 320,411.5C 309.109,417.687 298.109,423.687 287,429.5C 283.988,424.8 280.988,420.134 278,415.5C 270.894,420.268 264.061,425.435 257.5,431C 240.6,437.969 223.266,439.303 205.5,435C 190.483,427.651 176.816,418.317 164.5,407C 162.956,406.71 161.623,406.044 160.5,405C 153.809,404.831 147.142,404.331 140.5,403.5C 138.876,402.131 138.376,400.464 139,398.5C 140.5,397 142,395.5 143.5,394C 156.051,390.292 168.385,391.126 180.5,396.5C 182.649,397.736 184.982,398.736 187.5,399.5C 193.512,403.336 200.178,405.003 207.5,404.5C 212.054,405.992 216.387,405.658 220.5,403.5C 234.499,399.83 245.832,392.163 254.5,380.5C 253.081,378.664 251.914,376.664 251,374.5C 244.302,366.308 237.469,358.308 230.5,350.5C 228.727,347.94 226.727,345.607 224.5,343.5C 208.14,324.975 191.973,306.309 176,287.5C 164.36,277.194 153.36,266.194 143,254.5C 130.95,239.451 119.283,224.117 108,208.5C 101.688,197.871 97.0211,186.538 94,174.5C 93.3333,167.5 93.3333,160.5 94,153.5C 95.4443,151.845 97.2776,151.178 99.5,151.5C 103.661,167.153 110.494,181.487 120,194.5C 125.15,200.138 129.817,206.138 134,212.5C 170.282,249.992 208.115,285.992 247.5,320.5 Z"/></g>
<g><path style="opacity:1" fill="#18723c" d="M 466.5,156.5 C 469.135,158.339 470.468,161.006 470.5,164.5C 462.7,166.767 455.034,169.433 447.5,172.5C 449.156,177.818 450.822,183.151 452.5,188.5C 450.193,188.986 448.027,188.986 446,188.5C 444.06,181.953 441.56,175.619 438.5,169.5C 439.09,168.201 440.09,167.368 441.5,167C 450.25,164.244 458.583,160.744 466.5,156.5 Z"/></g>
<g><path style="opacity:1" fill="#f1f5c1" d="M 49.5,159.5 C 51.1667,159.5 52.8333,159.5 54.5,159.5C 54.4533,162.568 53.9533,165.568 53,168.5C 52.4806,169.516 51.6473,170.182 50.5,170.5C 48.3904,169.946 46.3904,169.112 44.5,168C 46.5564,165.386 48.2231,162.553 49.5,159.5 Z"/></g>
<g><path style="opacity:0.993" fill="#3b9159" d="M 250.5,116.5 C 258.238,116.144 265.905,116.644 273.5,118C 262.342,121.941 251.342,126.275 240.5,131C 215.134,151.444 208.301,176.944 220,207.5C 235.185,235.675 258.685,247.175 290.5,242C 295.87,239.872 301.204,237.539 306.5,235C 314.614,228.52 322.447,221.687 330,214.5C 314.738,251.61 286.905,268.443 246.5,265C 213.663,257.496 193.496,237.329 186,204.5C 181.287,170.428 193.454,144.261 222.5,126C 231.587,121.694 240.921,118.527 250.5,116.5 Z M 245.5,121.5 C 246.873,121.343 248.207,121.51 249.5,122C 247.509,122.374 245.842,123.207 244.5,124.5C 226.02,134.737 214.854,150.404 211,171.5C 208.449,204.58 221.949,228.413 251.5,243C 263.623,247.02 275.956,248.02 288.5,246C 299.756,245.066 308.922,240.233 316,231.5C 314.49,236.052 311.657,239.886 307.5,243C 280.4,265.176 251.4,267.843 220.5,251C 217.167,248.333 213.833,245.667 210.5,243C 202.97,235.315 197.304,226.482 193.5,216.5C 192.538,212.605 191.204,208.939 189.5,205.5C 186.649,184.24 191.316,164.906 203.5,147.5C 207.854,142.479 212.521,137.812 217.5,133.5C 221.109,132.362 224.442,130.696 227.5,128.5C 233.227,125.564 239.227,123.23 245.5,121.5 Z"/></g>
<g><path style="opacity:0.69" fill="#85bd9d" d="M 227.5,128.5 C 224.442,130.696 221.109,132.362 217.5,133.5C 219.983,130.259 223.316,128.592 227.5,128.5 Z"/></g>
<g><path style="opacity:0.796" fill="#8bc2a4" d="M 244.5,124.5 C 245.842,123.207 247.509,122.374 249.5,122C 248.207,121.51 246.873,121.343 245.5,121.5C 250.186,121.758 254.853,121.258 259.5,120C 254.817,122.617 249.817,124.117 244.5,124.5 Z"/></g>
<g><path style="opacity:0.106" fill="#91bfa8" d="M 497.5,170.5 C 498.674,171.514 499.34,172.847 499.5,174.5C 497.879,174.213 496.879,173.213 496.5,171.5C 496.624,170.893 496.957,170.56 497.5,170.5 Z"/></g>
<g><path style="opacity:1" fill="#8ebda8" d="M 13.5,170.5 C 14.6527,171.313 14.6527,172.313 13.5,173.5C 13.0431,174.298 12.3764,174.631 11.5,174.5C 11.6596,172.847 12.3263,171.514 13.5,170.5 Z"/></g>
<g><path style="opacity:0.995" fill="#348e54" d="M 281.5,141.5 C 287.041,146.852 292.874,151.852 299,156.5C 305.403,152.714 311.903,149.047 318.5,145.5C 319.583,146.365 319.749,147.365 319,148.5C 315.894,154.379 313.06,160.379 310.5,166.5C 315.684,172.517 321.35,178.017 327.5,183C 320.642,183.165 313.809,182.665 307,181.5C 305.833,181.833 304.667,182.167 303.5,182.5C 300.3,188.783 297.3,195.116 294.5,201.5C 292.237,194.114 290.237,186.614 288.5,179C 281.833,178.667 275.167,178.333 268.5,178C 267.376,177.751 266.376,177.251 265.5,176.5C 271.943,172.282 278.61,168.615 285.5,165.5C 284.296,157.48 282.963,149.48 281.5,141.5 Z M 293.5,157.5 C 294.962,158.458 296.295,159.624 297.5,161C 298.437,161.692 299.103,161.525 299.5,160.5C 303.46,158.788 307.293,156.788 311,154.5C 309.744,157.667 308.577,161.001 307.5,164.5C 306.475,165.374 305.808,166.541 305.5,168C 309.445,170.941 313.112,174.274 316.5,178C 315.207,178.49 313.873,178.657 312.5,178.5C 309.152,177.663 305.819,177.163 302.5,177C 299.813,181.391 297.313,185.891 295,190.5C 293.683,185.569 292.85,180.569 292.5,175.5C 287.464,175.412 282.464,174.912 277.5,174C 281.202,171.37 285.202,169.203 289.5,167.5C 289.921,162.968 289.255,158.468 287.5,154C 287.833,153.5 288.167,153 288.5,152.5C 290.549,153.882 292.215,155.548 293.5,157.5 Z"/></g>
<g><path style="opacity:1" fill="#6aad86" d="M 307.5,164.5 C 307.343,165.873 307.51,167.207 308,168.5C 312.167,171.333 315.667,174.833 318.5,179C 316.288,179.789 314.288,179.622 312.5,178.5C 313.873,178.657 315.207,178.49 316.5,178C 313.112,174.274 309.445,170.941 305.5,168C 305.808,166.541 306.475,165.374 307.5,164.5 Z"/></g>
<g><path style="opacity:1" fill="#92c6a9" d="M 293.5,157.5 C 293.56,156.957 293.893,156.624 294.5,156.5C 296.186,157.857 297.852,159.19 299.5,160.5C 299.103,161.525 298.437,161.692 297.5,161C 296.295,159.624 294.962,158.458 293.5,157.5 Z"/></g>
<g><path style="opacity:1" fill="#18723c" d="M 473.5,180.5 C 475.451,180.227 476.951,180.893 478,182.5C 480.221,189.686 482.388,196.853 484.5,204C 483,205.115 481.333,205.948 479.5,206.5C 477.713,204.142 476.713,201.475 476.5,198.5C 467.902,199.809 459.569,202.143 451.5,205.5C 449.608,203.129 449.275,200.629 450.5,198C 458.242,195.531 465.908,192.864 473.5,190C 472.73,187.433 471.73,184.933 470.5,182.5C 471.602,181.824 472.602,181.158 473.5,180.5 Z"/></g>
<g><path style="opacity:1" fill="#1a733d" d="M 51.5,189.5 C 56.2137,189.173 60.8804,189.507 65.5,190.5C 64.7865,192.811 63.7865,194.978 62.5,197C 59.905,197.226 57.405,197.726 55,198.5C 54.3299,202.011 53.1632,205.344 51.5,208.5C 53.6708,210.172 55.6708,212.005 57.5,214C 56.5279,216.111 55.6946,218.278 55,220.5C 47.5905,214.546 40.0905,208.713 32.5,203C 28.0078,200.031 27.3411,196.364 30.5,192C 37.6797,191.427 44.6797,190.594 51.5,189.5 Z"/></g>
<g><path style="opacity:1" fill="#eaf0bc" d="M 39.5,198.5 C 42.5184,198.335 45.5184,198.502 48.5,199C 47.6705,200.816 46.8372,202.649 46,204.5C 43.2893,202.951 41.1226,200.951 39.5,198.5 Z"/></g>
<g><path style="opacity:0.208" fill="#84be9f" d="M 189.5,205.5 C 191.204,208.939 192.538,212.605 193.5,216.5C 192.25,216.423 191.417,215.756 191,214.5C 189.851,211.607 189.351,208.607 189.5,205.5 Z"/></g>
<g><path style="opacity:1" fill="#15713b" d="M 481.5,213.5 C 483.167,213.5 484.833,213.5 486.5,213.5C 486.5,216.167 486.5,218.833 486.5,221.5C 479.12,221.952 471.786,222.786 464.5,224C 460.176,228.849 460.843,232.683 466.5,235.5C 474.102,233.955 481.769,232.955 489.5,232.5C 489.5,234.833 489.5,237.167 489.5,239.5C 480.54,240.995 471.54,241.828 462.5,242C 459.667,240.5 457.5,238.333 456,235.5C 455.333,231.167 455.333,226.833 456,222.5C 457.5,221 459,219.5 460.5,218C 467.542,216.055 474.542,214.555 481.5,213.5 Z"/></g>
<g><path style="opacity:1" fill="#13703a" d="M 29.5,216.5 C 35.2552,215.271 39.7552,216.938 43,221.5C 43.1717,226.202 43.6717,230.868 44.5,235.5C 47.7577,236.417 51.091,236.751 54.5,236.5C 54.6621,238.527 54.4955,240.527 54,242.5C 53.4806,243.516 52.6473,244.182 51.5,244.5C 41.5257,242.615 31.5257,240.949 21.5,239.5C 22.1279,233.4 23.2945,227.4 25,221.5C 26.3657,219.638 27.8657,217.972 29.5,216.5 Z"/></g>
<g><path style="opacity:1" fill="#eaf0bc" d="M 31.5,223.5 C 37.1558,223.867 38.9891,226.867 37,232.5C 36.4806,233.516 35.6473,234.182 34.5,234.5C 32.8653,233.954 31.1986,233.62 29.5,233.5C 29.1524,229.915 29.819,226.582 31.5,223.5 Z"/></g>
<g><path style="opacity:1" fill="#a4c893" d="M 8.5,219.5 C 8.47295,225.051 7.80629,230.384 6.5,235.5C 6.37603,229.931 7.04269,224.598 8.5,219.5 Z"/></g>
<g><path style="opacity:1" fill="#a2c792" d="M 502.5,219.5 C 503.889,224.269 504.556,229.269 504.5,234.5C 503.111,229.731 502.444,224.731 502.5,219.5 Z"/></g>
<g><path style="opacity:1" fill="#0f773b" d="M 224.5,343.5 C 226.727,345.607 228.727,347.94 230.5,350.5C 223.515,358.821 216.515,367.154 209.5,375.5C 212.576,385.211 216.243,394.544 220.5,403.5C 216.387,405.658 212.054,405.992 207.5,404.5C 207.522,396.895 205.189,390.228 200.5,384.5C 195.8,389.199 191.466,394.199 187.5,399.5C 184.982,398.736 182.649,397.736 180.5,396.5C 185.428,389.728 190.594,383.061 196,376.5C 196.483,375.552 196.649,374.552 196.5,373.5C 184.654,375.144 173.654,372.977 163.5,367C 147.401,355.233 132.567,342.066 119,327.5C 117,324.167 115,320.833 113,317.5C 107.11,313.278 102.276,308.111 98.5,302C 99.1868,300.838 99.3534,299.672 99,298.5C 95,295.167 91.3333,291.5 88,287.5C 88.3333,285.167 88.6667,282.833 89,280.5C 84.3108,277.311 80.4775,273.311 77.5,268.5C 79.0745,267.369 80.7412,267.202 82.5,268C 87.0323,272.867 91.8656,277.367 97,281.5C 97.3152,280.092 96.9819,278.759 96,277.5C 89.7096,273.544 84.3763,268.544 80,262.5C 80,259.833 80,257.167 80,254.5C 76.3679,249.866 72.3679,245.533 68,241.5C 66.7978,239.323 66.2978,236.989 66.5,234.5C 69.6883,234.618 72.6883,235.451 75.5,237C 79.07,240.74 83.07,243.906 87.5,246.5C 88.1667,246.167 88.8333,245.833 89.5,245.5C 87.1561,242.499 86.3228,239.165 87,235.5C 91.593,239.215 96.093,243.048 100.5,247C 102.891,247.287 105.224,247.787 107.5,248.5C 111.186,252.02 115.019,255.353 119,258.5C 118.888,256.822 118.388,255.155 117.5,253.5C 117.733,252.068 118.4,251.568 119.5,252C 126.663,260.163 134.163,267.996 142,275.5C 142.085,272.639 141.251,269.972 139.5,267.5C 140.002,266.479 140.668,266.312 141.5,267C 147.051,273.55 152.217,280.383 157,287.5C 156.264,284.593 155.93,281.593 156,278.5C 162.309,286.977 168.809,295.31 175.5,303.5C 176.167,301.833 176.833,300.167 177.5,298.5C 184.759,306.649 192.259,314.649 200,322.5C 202.518,328.023 205.852,333.023 210,337.5C 211.872,340.205 212.705,343.205 212.5,346.5C 211.408,351.588 210.242,356.588 209,361.5C 213.938,355.282 219.105,349.282 224.5,343.5 Z"/></g>
<g><path style="opacity:1" fill="#10773b" d="M 256.5,329.5 C 253.194,326.86 250.194,323.86 247.5,320.5C 247.5,320.167 247.5,319.833 247.5,319.5C 248.259,313.583 249.259,307.583 250.5,301.5C 256.536,291.625 264.203,283.125 273.5,276C 291.556,264.722 310.389,254.888 330,246.5C 330.5,246.667 331,246.833 331.5,247C 330,248.5 328.5,250 327,251.5C 326.312,252.332 326.479,252.998 327.5,253.5C 339.377,248.935 351.544,245.268 364,242.5C 365.973,242.309 367.473,242.976 368.5,244.5C 365.719,246.394 362.719,248.061 359.5,249.5C 360.167,249.833 360.833,250.167 361.5,250.5C 367.141,247.765 372.975,245.432 379,243.5C 379.833,243.833 380.667,244.167 381.5,244.5C 380.135,245.941 378.635,247.274 377,248.5C 376.568,249.6 377.068,250.267 378.5,250.5C 388.837,246.902 399.503,244.735 410.5,244C 411.833,245.333 411.833,246.667 410.5,248C 404.612,249.628 398.612,250.628 392.5,251C 377.051,255.385 377.051,257.051 392.5,256C 399.942,254.445 407.442,253.278 415,252.5C 417.167,252.667 419.333,252.833 421.5,253C 422.705,255.234 422.039,256.901 419.5,258C 414.167,258.333 408.833,258.667 403.5,259C 402.87,260.892 401.87,262.559 400.5,264C 395.082,266.551 389.415,268.217 383.5,269C 382.577,271.041 382.244,273.208 382.5,275.5C 386.135,275.656 386.468,276.822 383.5,279C 376.693,281.569 370.359,284.902 364.5,289C 368.139,288.722 371.806,288.722 375.5,289C 376.833,290 376.833,291 375.5,292C 363.287,295.293 351.62,299.96 340.5,306C 343.19,306.771 345.856,307.604 348.5,308.5C 348.291,309.086 347.957,309.586 347.5,310C 340.35,311.135 333.35,312.801 326.5,315C 328.833,315.333 331.167,315.667 333.5,316C 334.833,317 334.833,318 333.5,319C 321.959,320.792 310.959,324.292 300.5,329.5C 300.277,330.967 299.944,332.467 299.5,334C 284.591,337.075 270.258,335.575 256.5,329.5 Z"/></g>
<g><path style="opacity:1" fill="#6ba771" d="M 489.5,251.5 C 478.833,251.5 468.167,251.5 457.5,251.5C 457.5,253.5 457.5,255.5 457.5,257.5C 461.833,257.5 466.167,257.5 470.5,257.5C 470.784,259.415 470.451,261.081 469.5,262.5C 469.5,261.167 469.5,259.833 469.5,258.5C 465.167,258.5 460.833,258.5 456.5,258.5C 456.5,255.833 456.5,253.167 456.5,250.5C 467.679,250.172 478.679,250.505 489.5,251.5 Z"/></g>
<g><path style="opacity:1" fill="#0f6f39" d="M 489.5,251.5 C 489.666,258.175 489.5,264.842 489,271.5C 482.546,279.744 476.546,279.411 471,270.5C 467.098,273.868 462.931,276.868 458.5,279.5C 457.348,276.894 457.182,274.227 458,271.5C 462.175,268.842 466.008,265.842 469.5,262.5C 470.451,261.081 470.784,259.415 470.5,257.5C 466.167,257.5 461.833,257.5 457.5,257.5C 457.5,255.5 457.5,253.5 457.5,251.5C 468.167,251.5 478.833,251.5 489.5,251.5 Z"/></g>
<g><path style="opacity:1" fill="#edf3be" d="M 358.5,255.5 C 360.216,256.574 361.216,258.241 361.5,260.5C 359.41,262.752 356.91,264.419 354,265.5C 353.596,261.308 355.096,257.975 358.5,255.5 Z"/></g>
<g><path style="opacity:1" fill="#cfe2ad" d="M 340.5,256.5 C 341.833,256.5 343.167,256.5 344.5,256.5C 343.873,261.119 341.206,263.119 336.5,262.5C 336.351,261.448 336.517,260.448 337,259.5C 338.518,258.837 339.685,257.837 340.5,256.5 Z"/></g>
<g><path style="opacity:1" fill="#fafac6" d="M 476.5,258.5 C 478.5,258.5 480.5,258.5 482.5,258.5C 482.5,262.167 482.5,265.833 482.5,269.5C 480.533,269.739 478.699,269.406 477,268.5C 476.502,265.183 476.335,261.85 476.5,258.5 Z"/></g>
<g><path style="opacity:1" fill="#d8e8b2" d="M 321.5,259.5 C 326.467,259.584 326.8,260.918 322.5,263.5C 321.571,262.311 321.238,260.978 321.5,259.5 Z"/></g>
<g><path style="opacity:1" fill="#e1ecb7" d="M 309.5,261.5 C 310.978,261.238 312.311,261.571 313.5,262.5C 312.053,264.403 310.386,266.07 308.5,267.5C 305.848,265.099 306.181,263.099 309.5,261.5 Z"/></g>
<g><path style="opacity:1" fill="#ebf2bd" d="M 328.5,267.5 C 329.748,268.334 330.415,269.667 330.5,271.5C 331.157,274.841 329.824,276.841 326.5,277.5C 325.018,273.727 325.684,270.393 328.5,267.5 Z"/></g>
<g><path style="opacity:1" fill="#d7e7b1" d="M 122.5,270.5 C 126.17,271.193 127.17,273.193 125.5,276.5C 123.022,275.278 122.022,273.278 122.5,270.5 Z"/></g>
<g><path style="opacity:1" fill="#cfe2ac" d="M 362.5,267.5 C 367.39,267.639 367.723,269.139 363.5,272C 362.207,272.49 360.873,272.657 359.5,272.5C 359.31,270.041 360.31,268.374 362.5,267.5 Z"/></g>
<g><path style="opacity:1" fill="#dce9b4" d="M 345.5,269.5 C 348.466,273.965 347.466,277.631 342.5,280.5C 341.402,276.336 342.402,272.669 345.5,269.5 Z"/></g>
<g><path style="opacity:1" fill="#f1f5c1" d="M 368.5,271.5 C 377.989,270.532 378.656,272.032 370.5,276C 369.207,276.49 367.873,276.657 366.5,276.5C 366.392,274.486 367.058,272.82 368.5,271.5 Z"/></g>
<g><path style="opacity:1" fill="#5a9d68" d="M 28.5,266.5 C 27.5119,261.36 27.1786,256.026 27.5,250.5C 25.8333,250.5 24.1667,250.5 22.5,250.5C 22.5,258.167 22.5,265.833 22.5,273.5C 32.8333,273.5 43.1667,273.5 53.5,273.5C 53.5,265.833 53.5,258.167 53.5,250.5C 51.8333,250.5 50.1667,250.5 48.5,250.5C 48.8214,256.026 48.4881,261.36 47.5,266.5C 47.5,260.833 47.5,255.167 47.5,249.5C 49.8333,249.5 52.1667,249.5 54.5,249.5C 54.5,257.833 54.5,266.167 54.5,274.5C 43.5,274.5 32.5,274.5 21.5,274.5C 21.5,266.167 21.5,257.833 21.5,249.5C 23.8333,249.5 26.1667,249.5 28.5,249.5C 28.5,255.167 28.5,260.833 28.5,266.5 Z"/></g>
<g><path style="opacity:1" fill="#066c36" d="M 28.5,266.5 C 30.2646,267.461 32.2646,267.795 34.5,267.5C 34.5,262.167 34.5,256.833 34.5,251.5C 36.5,251.5 38.5,251.5 40.5,251.5C 40.5,256.5 40.5,261.5 40.5,266.5C 42.8333,266.5 45.1667,266.5 47.5,266.5C 48.4881,261.36 48.8214,256.026 48.5,250.5C 50.1667,250.5 51.8333,250.5 53.5,250.5C 53.5,258.167 53.5,265.833 53.5,273.5C 43.1667,273.5 32.8333,273.5 22.5,273.5C 22.5,265.833 22.5,258.167 22.5,250.5C 24.1667,250.5 25.8333,250.5 27.5,250.5C 27.1786,256.026 27.5119,261.36 28.5,266.5 Z"/></g>
<g><path style="opacity:1" fill="#7cb17b" d="M 34.5,251.5 C 34.5,256.833 34.5,262.167 34.5,267.5C 32.2646,267.795 30.2646,267.461 28.5,266.5C 30.1667,266.5 31.8333,266.5 33.5,266.5C 33.1795,261.305 33.5128,256.305 34.5,251.5 Z"/></g>
<g><path style="opacity:1" fill="#e1ecb7" d="M 290.5,271.5 C 295.467,271.584 295.8,272.918 291.5,275.5C 290.571,274.311 290.238,272.978 290.5,271.5 Z"/></g>
<g><path style="opacity:1" fill="#eef3bf" d="M 315.5,271.5 C 316.012,274.632 316.012,277.965 315.5,281.5C 314.07,281.421 312.736,281.754 311.5,282.5C 309.754,277.667 311.087,274 315.5,271.5 Z"/></g>
<g><path style="opacity:1" fill="#eef3be" d="M 299.5,274.5 C 300.552,274.351 301.552,274.517 302.5,275C 301.697,279.414 301.197,283.914 301,288.5C 299.644,289.38 298.144,289.714 296.5,289.5C 296.122,284.15 297.122,279.15 299.5,274.5 Z"/></g>
<g><path style="opacity:1" fill="#f1f5c0" d="M 110.5,275.5 C 113.946,276.612 115.946,278.945 116.5,282.5C 112.9,281.68 110.9,279.347 110.5,275.5 Z"/></g>
<g><path style="opacity:1" fill="#e7efbb" d="M 125.5,279.5 C 128.5,279.167 129.833,280.5 129.5,283.5C 126.5,283.833 125.167,282.5 125.5,279.5 Z"/></g>
<g><path style="opacity:1" fill="#cce0aa" d="M 279.5,278.5 C 284.467,278.584 284.8,279.918 280.5,282.5C 279.571,281.311 279.238,279.978 279.5,278.5 Z"/></g>
<g><path style="opacity:1" fill="#77b091" d="M 511.5,276.5 C 511.5,279.167 511.5,281.833 511.5,284.5C 511.167,284.5 510.833,284.5 510.5,284.5C 509.844,283.378 509.511,282.045 509.5,280.5C 509.585,278.667 510.252,277.334 511.5,276.5 Z"/></g>
<g><path style="opacity:1" fill="#17723c" d="M 39.5,281.5 C 47.8817,280.602 53.715,283.935 57,291.5C 57.6724,296.035 58.5057,300.535 59.5,305C 59.0946,305.945 58.428,306.612 57.5,307C 47.538,308.827 37.538,310.327 27.5,311.5C 26.4466,304.856 25.9466,298.19 26,291.5C 26.7922,289.413 27.9588,287.579 29.5,286C 32.8932,284.38 36.2265,282.88 39.5,281.5 Z"/></g>
<g><path style="opacity:1" fill="#99c58d" d="M 103.5,282.5 C 105.268,281.493 106.601,282.159 107.5,284.5C 107.167,284.833 106.833,285.167 106.5,285.5C 105.265,284.66 104.265,283.66 103.5,282.5 Z"/></g>
<g><path style="opacity:1" fill="#e8f0bb" d="M 137.5,282.5 C 139.998,285.507 142.831,288.507 146,291.5C 146.494,293.134 146.66,294.801 146.5,296.5C 143.833,297.167 141.167,297.833 138.5,298.5C 138.02,293.178 137.687,287.845 137.5,282.5 Z"/></g>
<g><path style="opacity:1" fill="#13703a" d="M 454.5,283.5 C 464.838,284.868 475.172,286.368 485.5,288C 486.097,289.062 486.43,290.228 486.5,291.5C 485.281,298.144 484.281,304.811 483.5,311.5C 481.5,311.5 479.5,311.5 477.5,311.5C 477.98,305.809 478.646,300.142 479.5,294.5C 477.5,294.5 475.5,294.5 473.5,294.5C 472.833,299.167 472.167,303.833 471.5,308.5C 469.5,308.5 467.5,308.5 465.5,308.5C 466.167,303.167 466.833,297.833 467.5,292.5C 464.794,292.425 462.127,292.092 459.5,291.5C 459.16,297.208 458.493,302.875 457.5,308.5C 455.5,308.5 453.5,308.5 451.5,308.5C 452.827,300.206 453.827,291.873 454.5,283.5 Z"/></g>
<g><path style="opacity:1" fill="#e5eeb9" d="M 344.5,284.5 C 346.527,284.338 348.527,284.505 350.5,285C 350.957,285.414 351.291,285.914 351.5,286.5C 348.03,289.394 344.03,290.227 339.5,289C 338.167,288.333 338.167,287.667 339.5,287C 341.653,286.901 343.319,286.067 344.5,284.5 Z"/></g>
<g><path style="opacity:1" fill="#e4eeb9" d="M 285.5,284.5 C 288.242,288.291 288.075,291.958 285,295.5C 284.245,291.745 284.411,288.078 285.5,284.5 Z"/></g>
<g><path style="opacity:1" fill="#e6efba" d="M 268.5,285.5 C 271.145,287.895 270.478,289.561 266.5,290.5C 265.833,290.167 265.167,289.833 264.5,289.5C 265.867,288.16 267.2,286.827 268.5,285.5 Z"/></g>
<g><path style="opacity:1" fill="#e0ecb7" d="M 317.5,286.5 C 322.151,287.499 322.151,289.499 317.5,292.5C 315.001,290.604 315.001,288.604 317.5,286.5 Z"/></g>
<g><path style="opacity:1" fill="#eff4bf" d="M 121.5,287.5 C 126.592,288.098 129.426,290.764 130,295.5C 128.915,296.293 127.748,296.96 126.5,297.5C 124.762,294.126 123.096,290.793 121.5,287.5 Z"/></g>
<g><path style="opacity:1" fill="#f6f8c4" d="M 37.5,289.5 C 47.5919,286.609 52.2585,290.275 51.5,300.5C 45.1545,301.058 38.8211,301.724 32.5,302.5C 30.094,296.437 31.7606,292.104 37.5,289.5 Z"/></g>
<g><path style="opacity:1" fill="#ddeab5" d="M 106.5,291.5 C 109.839,291.89 113.173,292.39 116.5,293C 117.517,294.049 117.684,295.216 117,296.5C 115.274,297.576 113.441,297.743 111.5,297C 110.335,295.916 109.002,295.083 107.5,294.5C 106.614,293.675 106.281,292.675 106.5,291.5 Z"/></g>
<g><path style="opacity:1" fill="#bdd8a2" d="M 274.5,288.5 C 275.695,288.866 276.361,289.699 276.5,291C 275.591,292.789 275.424,294.623 276,296.5C 278.172,297.509 279.338,299.176 279.5,301.5C 277.856,301.714 276.356,301.38 275,300.5C 274.501,296.514 274.334,292.514 274.5,288.5 Z"/></g>
<g><path style="opacity:1" fill="#dbe9b3" d="M 301.5,293.5 C 303.948,293.01 305.615,293.843 306.5,296C 305.381,297.876 303.714,298.709 301.5,298.5C 301.5,296.833 301.5,295.167 301.5,293.5 Z"/></g>
<g><path style="opacity:1" fill="#e7efba" d="M 326.5,294.5 C 329.985,294.572 332.985,295.238 335.5,296.5C 332.001,298.562 328.335,298.895 324.5,297.5C 325.193,296.482 325.859,295.482 326.5,294.5 Z"/></g>
<g><path style="opacity:1" fill="#e0ecb7" d="M 263.5,298.5 C 267.028,300.574 268.028,303.574 266.5,307.5C 263.924,305.122 262.924,302.122 263.5,298.5 Z"/></g>
<g><path style="opacity:1" fill="#e3edb8" d="M 288.5,300.5 C 290.167,300.5 291.833,300.5 293.5,300.5C 293.607,304.286 292.107,307.286 289,309.5C 288.502,306.518 288.335,303.518 288.5,300.5 Z"/></g>
<g><path style="opacity:1" fill="#f0f4c0" d="M 162.5,300.5 C 165.272,301.436 167.272,303.27 168.5,306C 167.023,309.33 166.189,312.83 166,316.5C 164.989,317.337 163.822,317.67 162.5,317.5C 163.104,311.886 163.104,306.219 162.5,300.5 Z"/></g>
<g><path style="opacity:1" fill="#dfebb6" d="M 313.5,300.5 C 315.588,301.939 317.921,302.606 320.5,302.5C 320.703,304.39 320.037,305.89 318.5,307C 315.986,308.252 313.32,308.752 310.5,308.5C 310.572,305.447 311.572,302.781 313.5,300.5 Z"/></g>
<g><path style="opacity:1" fill="#d1e3ae" d="M 150.5,291.5 C 151.75,291.577 152.583,292.244 153,293.5C 153.357,297.51 153.19,301.51 152.5,305.5C 151.325,305.719 150.325,305.386 149.5,304.5C 150.439,300.235 150.772,295.902 150.5,291.5 Z"/></g>
<g><path style="opacity:1" fill="#f3f6c1" d="M 114.5,304.5 C 118.403,304.564 122.403,304.897 126.5,305.5C 126.5,306.5 126.5,307.5 126.5,308.5C 123.15,308.665 119.817,308.498 116.5,308C 115.177,307.184 114.511,306.017 114.5,304.5 Z"/></g>
<g><path style="opacity:1" fill="#db2f23" d="M 432.5,305.5 C 441.207,305.037 444.707,309.037 443,317.5C 440.045,321.277 436.212,322.443 431.5,321C 425.974,315.357 426.308,310.19 432.5,305.5 Z"/></g>
<g><path style="opacity:1" fill="#dceab4" d="M 255.5,304.5 C 259.613,306.726 260.947,310.06 259.5,314.5C 256.811,311.778 255.478,308.445 255.5,304.5 Z"/></g>
<g><path style="opacity:1" fill="#e6efba" d="M 276.5,308.5 C 277.833,308.5 279.167,308.5 280.5,308.5C 280.604,312.027 279.437,315.027 277,317.5C 276.502,314.518 276.335,311.518 276.5,308.5 Z"/></g>
<g><path style="opacity:1" fill="#e4eeb9" d="M 297.5,310.5 C 300.187,310.336 302.854,310.503 305.5,311C 306.815,312.395 306.481,313.395 304.5,314C 301.854,314.497 299.187,314.664 296.5,314.5C 296.433,313.041 296.766,311.708 297.5,310.5 Z"/></g>
<g><path style="opacity:1" fill="#d4e5af" d="M 135.5,308.5 C 138.109,308.83 139.776,310.33 140.5,313C 143.371,313.118 146.038,313.784 148.5,315C 146.046,318.627 142.713,319.46 138.5,317.5C 137.253,315.994 137.253,314.494 138.5,313C 136.859,311.871 135.859,310.371 135.5,308.5 Z"/></g>
<g><path style="opacity:1" fill="#e5eeb9" d="M 176.5,311.5 C 178.124,311.36 179.29,312.027 180,313.5C 181.086,321.42 179.586,322.253 175.5,316C 175.773,314.467 176.106,312.967 176.5,311.5 Z"/></g>
<g><path style="opacity:1" fill="#9fc890" d="M 250.5,301.5 C 249.259,307.583 248.259,313.583 247.5,319.5C 247.334,315.486 247.501,311.486 248,307.5C 248.24,305.148 249.073,303.148 250.5,301.5 Z"/></g>
<g><path style="opacity:1" fill="#edf3be" d="M 123.5,315.5 C 127.584,315.043 131.417,315.71 135,317.5C 135.483,318.448 135.649,319.448 135.5,320.5C 132.393,320.649 129.393,320.149 126.5,319C 124.574,318.578 123.574,317.411 123.5,315.5 Z"/></g>
<g><path style="opacity:1" fill="#d9e8b2" d="M 268.5,317.5 C 270.344,318.204 270.844,319.537 270,321.5C 268.103,323.016 265.936,323.683 263.5,323.5C 263.351,322.448 263.517,321.448 264,320.5C 265.652,319.601 267.152,318.601 268.5,317.5 Z"/></g>
<g><path style="opacity:1" fill="#eaf1bd" d="M 285.5,318.5 C 289.981,318.425 294.314,319.092 298.5,320.5C 298.5,321.5 298.5,322.5 298.5,323.5C 295.15,323.665 291.817,323.498 288.5,323C 286.859,321.871 285.859,320.371 285.5,318.5 Z"/></g>
<g><path style="opacity:1" fill="#e9f1bc" d="M 186.5,322.5 C 187.496,322.414 188.329,322.748 189,323.5C 190.415,328.818 189.081,333.152 185,336.5C 184.566,340.223 183.732,340.39 182.5,337C 185.455,332.596 186.789,327.763 186.5,322.5 Z"/></g>
<g><path style="opacity:1" fill="#e5efba" d="M 157.5,324.5 C 163.72,325.354 166.386,328.688 165.5,334.5C 161.287,332.299 158.621,328.966 157.5,324.5 Z"/></g>
<g><path style="opacity:1" fill="#e5eeb9" d="M 126.5,326.5 C 127.946,325.387 129.613,325.22 131.5,326C 132.337,327.011 132.67,328.178 132.5,329.5C 129.923,329.545 127.923,328.545 126.5,326.5 Z"/></g>
<g><path style="opacity:1" fill="#eef3bf" d="M 173.5,325.5 C 175.297,326.73 177.297,327.396 179.5,327.5C 179.756,329.912 178.756,331.579 176.5,332.5C 174.756,330.574 173.756,328.24 173.5,325.5 Z"/></g>
<g><path style="opacity:1" fill="#e5eeb9" d="M 139.5,329.5 C 143.534,329.505 147.534,329.838 151.5,330.5C 151.5,331.833 151.5,333.167 151.5,334.5C 148.813,334.664 146.146,334.497 143.5,334C 141.249,333.252 139.916,331.752 139.5,329.5 Z"/></g>
<g><path style="opacity:1" fill="#e6efba" d="M 195.5,335.5 C 197.714,336.392 198.714,338.058 198.5,340.5C 198.384,343.399 197.217,345.732 195,347.5C 193.266,346.534 192.432,345.034 192.5,343C 193.593,340.558 194.593,338.058 195.5,335.5 Z"/></g>
<g><path style="opacity:0.314" fill="#9fc7b4" d="M 499.5,336.5 C 499.34,338.153 498.674,339.486 497.5,340.5C 496.347,339.687 496.347,338.687 497.5,337.5C 497.957,336.702 498.624,336.369 499.5,336.5 Z"/></g>
<g><path style="opacity:1" fill="#dce9b4" d="M 172.5,340.5 C 174.384,340.712 175.717,341.712 176.5,343.5C 174.219,344.262 172.886,343.262 172.5,340.5 Z"/></g>
<g><path style="opacity:1" fill="#e7efba" d="M 146.5,343.5 C 151.985,342.348 157.651,342.182 163.5,343C 162.275,344.563 160.775,345.73 159,346.5C 156.663,346.101 154.163,346.101 151.5,346.5C 151.5,345.5 151.5,344.5 151.5,343.5C 149.833,343.5 148.167,343.5 146.5,343.5 Z"/></g>
<g><path style="opacity:1" fill="#a5cb94" d="M 204.5,347.5 C 207.063,348.998 207.063,350.665 204.5,352.5C 203.334,350.833 203.334,349.166 204.5,347.5 Z"/></g>
<g><path style="opacity:1" fill="#e9f1bc" d="M 184.5,348.5 C 187.487,348.948 188.487,350.448 187.5,353C 186.551,353.617 185.718,353.451 185,352.5C 184.51,351.207 184.343,349.873 184.5,348.5 Z"/></g>
<g><path style="opacity:1" fill="#f2f5c1" d="M 163.5,352.5 C 166.518,352.335 169.518,352.502 172.5,353C 174.861,353.197 176.528,354.364 177.5,356.5C 172.809,357.997 168.309,357.664 164,355.5C 163.517,354.552 163.351,353.552 163.5,352.5 Z"/></g>
<g><path style="opacity:1" fill="#fcfac7" d="M 230.5,350.5 C 237.469,358.308 244.302,366.308 251,374.5C 251.914,376.664 253.081,378.664 254.5,380.5C 245.832,392.163 234.499,399.83 220.5,403.5C 216.243,394.544 212.576,385.211 209.5,375.5C 216.515,367.154 223.515,358.821 230.5,350.5 Z"/></g>
<g><path style="opacity:1" fill="#dbe9b3" d="M 193.5,356.5 C 197.161,356.35 198.161,357.85 196.5,361C 191.522,361.864 190.522,360.364 193.5,356.5 Z"/></g>
<g><path style="opacity:1" fill="#dc3527" d="M 79.5,359.5 C 81.9732,359.736 83.6399,361.069 84.5,363.5C 81.3926,366.56 78.0593,369.394 74.5,372C 80.4114,373.464 86.4114,374.464 92.5,375C 94.0456,377.257 95.7123,379.424 97.5,381.5C 96.8333,381.833 96.1667,382.167 95.5,382.5C 90.5229,381.168 85.5229,380.334 80.5,380C 77.6346,386.897 74.6346,393.73 71.5,400.5C 69.3918,398.618 68.0585,396.285 67.5,393.5C 69.7931,388.586 71.7931,383.586 73.5,378.5C 70.8589,377.737 68.1922,377.57 65.5,378C 63.3333,379.5 61.1667,381 59,382.5C 57.437,381.275 56.2703,379.775 55.5,378C 63.666,371.995 71.666,365.828 79.5,359.5 Z"/></g>
<g><path style="opacity:1" fill="#e5efba" d="M 182.5,362.5 C 184.167,362.5 185.833,362.5 187.5,362.5C 187.949,364.977 187.283,366.977 185.5,368.5C 182.961,367.885 180.461,367.218 178,366.5C 177.833,366.167 177.667,365.833 177.5,365.5C 179.36,364.675 181.026,363.675 182.5,362.5 Z"/></g>
<g><path style="opacity:0.867" fill="#9ecdbb" d="M 23.5,364.5 C 25.873,366.579 27.2064,369.246 27.5,372.5C 25.127,370.421 23.7936,367.754 23.5,364.5 Z"/></g>
<g><path style="opacity:1" fill="#dd3929" d="M 435.5,366.5 C 436.873,366.343 438.207,366.51 439.5,367C 444.927,370.764 450.593,374.097 456.5,377C 455.468,379.874 453.468,381.374 450.5,381.5C 450.319,389.87 446.319,393.037 438.5,391C 436.848,389.53 435.848,387.697 435.5,385.5C 436.851,381.474 438.185,377.474 439.5,373.5C 437.712,373.215 436.045,373.548 434.5,374.5C 433.787,376.776 433.287,379.109 433,381.5C 432.035,383.26 430.868,383.594 429.5,382.5C 428.438,379.897 428.272,377.23 429,374.5C 431.001,371.669 433.167,369.003 435.5,366.5 Z"/></g>
<g><path style="opacity:0.129" fill="#a3cab6" d="M 487.5,366.5 C 486.737,368.368 485.737,370.035 484.5,371.5C 484.372,369.345 484.872,367.345 486,365.5C 486.383,366.056 486.883,366.389 487.5,366.5 Z"/></g>
<g><path style="opacity:1" fill="#fce7b7" d="M 442.5,376.5 C 446.264,377.423 447.764,379.756 447,383.5C 444.464,386.313 442.297,386.146 440.5,383C 441.609,380.953 442.276,378.787 442.5,376.5 Z"/></g>
<g><path style="opacity:1" fill="#dc3728" d="M 424.5,382.5 C 426.624,383.031 428.124,384.365 429,386.5C 432.025,391.911 434.858,397.411 437.5,403C 436.738,405.034 435.405,406.534 433.5,407.5C 429.128,405.563 424.961,403.23 421,400.5C 422.916,404.977 425.416,409.311 428.5,413.5C 427.408,415.596 425.741,416.929 423.5,417.5C 416.353,414.426 409.353,411.093 402.5,407.5C 403.5,405.833 404.833,404.5 406.5,403.5C 410.5,405.5 414.5,407.5 418.5,409.5C 418.833,409.167 419.167,408.833 419.5,408.5C 416.783,404.9 414.45,401.067 412.5,397C 413.292,395.04 414.625,393.54 416.5,392.5C 420.268,395.404 424.268,397.071 428.5,397.5C 426.667,394.5 424.833,391.5 423,388.5C 422.252,386.16 422.752,384.16 424.5,382.5 Z"/></g>
<g><path style="opacity:1" fill="#dc3728" d="M 98.5,383.5 C 100.922,384.085 102.589,385.585 103.5,388C 100.983,390.349 98.6499,392.849 96.5,395.5C 102.982,397.127 105.482,401.127 104,407.5C 100.312,412.688 95.812,417.022 90.5,420.5C 89.0186,419.52 87.6853,418.353 86.5,417C 90.3333,413.167 94.1667,409.333 98,405.5C 98.6643,400.504 96.4977,398.67 91.5,400C 87.6554,403.18 83.8221,406.347 80,409.5C 78.1667,409 77,407.833 76.5,406C 83.9687,398.697 91.302,391.197 98.5,383.5 Z"/></g>
<g><path style="opacity:1" fill="#f6f7c3" d="M 207.5,404.5 C 200.178,405.003 193.512,403.336 187.5,399.5C 191.466,394.199 195.8,389.199 200.5,384.5C 205.189,390.228 207.522,396.895 207.5,404.5 Z"/></g>
<g><path style="opacity:1" fill="#dc3728" d="M 109.5,406.5 C 111.506,407.839 113.173,409.506 114.5,411.5C 112.062,416.358 110.228,421.358 109,426.5C 113.52,423.573 118.187,420.907 123,418.5C 124.775,419.27 126.275,420.437 127.5,422C 118.053,428.207 108.053,433.373 97.5,437.5C 93.9091,436.882 91.2425,435.048 89.5,432C 89.6448,431.228 89.9781,430.561 90.5,430C 92.7573,429.888 94.924,430.388 97,431.5C 98.7106,431.561 100.044,430.894 101,429.5C 103.345,421.628 106.179,413.961 109.5,406.5 Z"/></g>
<g><path style="opacity:1" fill="#dc3627" d="M 395.5,411.5 C 398.32,411.248 400.986,411.748 403.5,413C 407.18,417.345 410.847,421.678 414.5,426C 413.708,427.96 412.375,429.46 410.5,430.5C 406.716,426.427 403.049,422.26 399.5,418C 394.504,417.336 392.67,419.502 394,424.5C 396.926,428.682 400.093,432.682 403.5,436.5C 402.5,438.167 401.167,439.5 399.5,440.5C 391.826,432.826 384.493,424.826 377.5,416.5C 379.149,415.352 380.649,414.019 382,412.5C 384.683,415.016 387.183,417.683 389.5,420.5C 390.74,416.939 392.74,413.939 395.5,411.5 Z"/></g>
<g><path style="opacity:1" fill="#dc3727" d="M 133.5,415.5 C 135.518,416.175 137.184,417.341 138.5,419C 136.966,421.899 135.299,424.733 133.5,427.5C 144.898,430.298 147.398,436.632 141,446.5C 133.77,454.857 127.437,454.19 122,444.5C 119.218,446.011 117.385,445.178 116.5,442C 122.046,433.07 127.713,424.237 133.5,415.5 Z"/></g>
<g><path style="opacity:1" fill="#dc3627" d="M 380.5,423.5 C 381.097,423.735 381.43,424.235 381.5,425C 380.341,428.451 379.841,431.951 380,435.5C 384.783,437.804 389.283,440.47 393.5,443.5C 392.071,444.935 390.405,445.935 388.5,446.5C 385.203,444.851 381.87,443.185 378.5,441.5C 377.369,443.074 377.202,444.741 378,446.5C 382.914,451.565 381.914,453.898 375,453.5C 369.874,444.745 364.374,436.245 358.5,428C 359.817,426.341 361.483,425.174 363.5,424.5C 366.899,428.564 369.899,432.897 372.5,437.5C 373.305,434.696 373.972,431.862 374.5,429C 376.375,426.955 378.375,425.122 380.5,423.5 Z"/></g>
<g><path style="opacity:1" fill="#fdf2c0" d="M 130.5,432.5 C 137.931,431.76 140.098,434.76 137,441.5C 129.166,449.201 125.833,447.534 127,436.5C 128.376,435.295 129.542,433.962 130.5,432.5 Z"/></g>
<g><path style="opacity:0.337" fill="#71a88a" d="M 65.5,427.5 C 72.5,432.5 78.5,438.5 83.5,445.5C 76.5,440.5 70.5,434.5 65.5,427.5 Z"/></g>
<g><path style="opacity:1" fill="#dc3627" d="M 352.5,439.5 C 355.602,439.154 358.435,439.821 361,441.5C 363.968,446.602 366.801,451.769 369.5,457C 368.714,458.988 367.214,460.154 365,460.5C 362.174,456.857 359.841,452.857 358,448.5C 353.918,444.119 350.751,444.619 348.5,450C 350.716,454.93 353.049,459.764 355.5,464.5C 352.618,468.612 350.118,468.279 348,463.5C 345.436,458.04 342.603,452.706 339.5,447.5C 341.428,445.422 343.595,444.755 346,445.5C 348.063,443.266 350.229,441.266 352.5,439.5 Z"/></g>
<g><path style="opacity:1" fill="#dd3929" d="M 150.5,440.5 C 165.108,439.415 169.441,445.415 163.5,458.5C 158.771,456.464 154.104,454.464 149.5,452.5C 148.946,458.452 151.446,460.452 157,458.5C 162.783,461.845 162.117,464.179 155,465.5C 145.468,463.349 141.802,457.682 144,448.5C 146.001,445.669 148.167,443.003 150.5,440.5 Z"/></g>
<g><path style="opacity:1" fill="#fcecbb" d="M 153.5,445.5 C 158.952,444.132 161.452,446.132 161,451.5C 157.511,452.011 154.677,450.678 152.5,447.5C 152.863,446.817 153.196,446.15 153.5,445.5 Z"/></g>
<g><path style="opacity:1" fill="#dc3728" d="M 173.5,448.5 C 176.488,448.329 178.488,449.662 179.5,452.5C 182.728,450.974 185.394,451.64 187.5,454.5C 186.52,455.981 185.353,457.315 184,458.5C 181.034,455.735 178.367,456.068 176,459.5C 174.564,464.05 172.397,468.05 169.5,471.5C 167.413,471.461 166.079,470.461 165.5,468.5C 168.179,461.813 170.846,455.146 173.5,448.5 Z"/></g>
<g><path style="opacity:1" fill="#dc3325" d="M 201.5,448.5 C 207.565,449.683 213.565,451.183 219.5,453C 223.815,457.121 224.649,461.955 222,467.5C 220.421,469.041 218.587,470.208 216.5,471C 211.688,471.648 207.022,471.148 202.5,469.5C 201.833,473.167 201.167,476.833 200.5,480.5C 198.5,480.5 196.5,480.5 194.5,480.5C 196.274,472.191 197.94,463.858 199.5,455.5C 200.924,453.485 201.59,451.152 201.5,448.5 Z"/></g>
<g><path style="opacity:1" fill="#dd3929" d="M 310.5,462.5 C 309.355,464.953 309.688,467.287 311.5,469.5C 311.833,471.5 312.167,473.5 312.5,475.5C 313.93,475.579 315.264,475.246 316.5,474.5C 318.333,475.968 318.666,477.635 317.5,479.5C 314.223,482.006 311.056,482.006 308,479.5C 306.667,474.833 305.333,470.167 304,465.5C 301.616,464.859 300.116,463.359 299.5,461C 300.931,458.708 301.764,456.208 302,453.5C 305.429,449.285 307.596,449.951 308.5,455.5C 312.375,455.705 314.041,457.705 313.5,461.5C 312.209,461.263 311.209,461.596 310.5,462.5 Z"/></g>
<g><path style="opacity:1" fill="#eb896b" d="M 201.5,448.5 C 201.59,451.152 200.924,453.485 199.5,455.5C 199.41,452.848 200.076,450.515 201.5,448.5 Z"/></g>
<g><path style="opacity:1" fill="#dc3426" d="M 279.5,454.5 C 280.533,457.986 281.367,461.653 282,465.5C 283.529,462.484 286.029,461.151 289.5,461.5C 292.791,461.279 295.291,462.613 297,465.5C 297.975,471.824 298.808,478.157 299.5,484.5C 297.396,484.799 295.396,484.466 293.5,483.5C 292.704,478.512 291.871,473.512 291,468.5C 288.333,465.833 285.667,465.833 283,468.5C 282.55,472.188 282.717,475.854 283.5,479.5C 283.702,481.95 283.369,484.283 282.5,486.5C 280.549,486.773 279.049,486.107 278,484.5C 276.783,476.15 275.617,467.816 274.5,459.5C 274.5,457.833 274.5,456.167 274.5,454.5C 276.167,454.5 277.833,454.5 279.5,454.5 Z"/></g>
<g><path style="opacity:1" fill="#dc3728" d="M 334.5,448.5 C 338.433,455.603 341.433,463.269 343.5,471.5C 341.94,471.519 340.44,471.852 339,472.5C 336.999,470.055 335.499,470.555 334.5,474C 328.38,478.297 323.88,477.13 321,470.5C 318.866,465.241 317.033,459.908 315.5,454.5C 317.924,454.192 320.257,454.526 322.5,455.5C 323.812,460.229 325.312,464.896 327,469.5C 331.73,471.69 334.23,470.19 334.5,465C 333.675,460.356 332.341,455.856 330.5,451.5C 331.624,450.141 332.958,449.141 334.5,448.5 Z"/></g>
<g><path style="opacity:1" fill="#fdf2c0" d="M 205.5,455.5 C 208.487,455.998 211.487,456.498 214.5,457C 217.167,459.667 217.167,462.333 214.5,465C 211.151,465.388 207.817,465.221 204.5,464.5C 204.704,461.482 205.037,458.482 205.5,455.5 Z"/></g>
<g><path style="opacity:1" fill="#dc3225" d="M 257.5,456.5 C 257.334,461.844 257.501,467.177 258,472.5C 259.793,469.705 261.96,467.205 264.5,465C 266.833,464.333 269.167,464.333 271.5,465C 269.539,467.963 267.206,470.629 264.5,473C 267.749,477.497 270.749,482.163 273.5,487C 271.167,487.667 268.833,487.667 266.5,487C 265.051,483.727 263.051,480.894 260.5,478.5C 259.914,478.709 259.414,479.043 259,479.5C 258.503,482.146 258.336,484.813 258.5,487.5C 256.5,487.5 254.5,487.5 252.5,487.5C 252.826,478.983 252.493,470.65 251.5,462.5C 251.5,460.5 251.5,458.5 251.5,456.5C 253.5,456.5 255.5,456.5 257.5,456.5 Z"/></g>
<g><path style="opacity:1" fill="#f0aa86" d="M 279.5,454.5 C 277.833,454.5 276.167,454.5 274.5,454.5C 274.5,456.167 274.5,457.833 274.5,459.5C 273.539,457.735 273.205,455.735 273.5,453.5C 275.735,453.205 277.735,453.539 279.5,454.5 Z"/></g>
<g><path style="opacity:1" fill="#dd3829" d="M 230.5,463.5 C 235.569,462.909 240.236,463.909 244.5,466.5C 245.497,473.803 245.831,481.137 245.5,488.5C 242.756,488.752 240.256,488.085 238,486.5C 233.802,488.057 229.802,487.724 226,485.5C 223.207,480.386 224.374,476.553 229.5,474C 232.5,473.667 235.5,473.333 238.5,473C 240.166,469.869 239.166,468.369 235.5,468.5C 233.956,468.79 232.623,469.456 231.5,470.5C 229.775,469.985 228.108,469.318 226.5,468.5C 227.508,466.501 228.841,464.834 230.5,463.5 Z"/></g>
<g><path style="opacity:1" fill="#ec8d6e" d="M 310.5,462.5 C 310.993,464.806 311.326,467.139 311.5,469.5C 309.688,467.287 309.355,464.953 310.5,462.5 Z"/></g>
<g><path style="opacity:1" fill="#f6c39a" d="M 257.5,456.5 C 255.5,456.5 253.5,456.5 251.5,456.5C 251.5,458.5 251.5,460.5 251.5,462.5C 251.5,467.167 251.5,471.833 251.5,476.5C 250.509,469.687 250.175,462.687 250.5,455.5C 253.059,455.198 255.393,455.532 257.5,456.5 Z"/></g>
<g><path style="opacity:1" fill="#e4614b" d="M 251.5,462.5 C 252.493,470.65 252.826,478.983 252.5,487.5C 254.5,487.5 256.5,487.5 258.5,487.5C 256.393,488.468 254.059,488.802 251.5,488.5C 251.5,484.5 251.5,480.5 251.5,476.5C 251.5,471.833 251.5,467.167 251.5,462.5 Z"/></g>
<g><path style="opacity:1" fill="#fdf1bf" d="M 231.5,477.5 C 233.833,477.5 236.167,477.5 238.5,477.5C 239.062,481.099 237.562,483.099 234,483.5C 230.675,482.519 229.842,480.519 231.5,477.5 Z"/></g>
<g><path style="opacity:0.141" fill="#a3cbb7" d="M 137.5,483.5 C 141.002,483.076 143.335,484.41 144.5,487.5C 141.968,486.404 139.635,485.071 137.5,483.5 Z"/></g>
<g><path style="opacity:1" fill="#ec8d6f" d="M 283.5,479.5 C 284.152,480.449 284.486,481.615 284.5,483C 284.392,484.681 283.725,485.848 282.5,486.5C 283.369,484.283 283.702,481.95 283.5,479.5 Z"/></g>
<g><path style="opacity:0.09" fill="#98c4af" d="M 371.5,484.5 C 370.035,485.737 368.368,486.737 366.5,487.5C 366.389,486.883 366.056,486.383 365.5,486C 367.345,484.872 369.345,484.372 371.5,484.5 Z"/></g>
<g><path style="opacity:0.996" fill="#73ac8d" d="M 153.5,490.5 C 157.89,490.965 161.557,492.632 164.5,495.5C 160.592,494.231 156.925,492.565 153.5,490.5 Z"/></g>
<g><path style="opacity:0.106" fill="#8bb39d" d="M 174.5,499.5 C 172.847,499.34 171.514,498.674 170.5,497.5C 171.313,496.347 172.313,496.347 173.5,497.5C 174.298,497.957 174.631,498.624 174.5,499.5 Z"/></g>
<g><path style="opacity:1" fill="#a3c792" d="M 219.5,502.5 C 224.731,502.444 229.731,503.111 234.5,504.5C 229.269,504.556 224.269,503.889 219.5,502.5 Z"/></g>
</svg>
